<svg width="81" height="81" viewBox="0 0 81 81" fill="none" xmlns="http://www.w3.org/2000/svg">
<g id="Group">
<path id="Vector" fill-rule="evenodd" clip-rule="evenodd" d="M16.7708 10.0625C14.9917 10.0625 13.2854 10.7693 12.0273 12.0273C10.7693 13.2854 10.0625 14.9917 10.0625 16.7708V63.7292C10.0625 65.5083 10.7693 67.2146 12.0273 68.4727C13.2854 69.7307 14.9917 70.4375 16.7708 70.4375H63.7292C65.5083 70.4375 67.2146 69.7307 68.4727 68.4727C69.7307 67.2146 70.4375 65.5083 70.4375 63.7292V16.7708C70.4375 14.9917 69.7307 13.2854 68.4727 12.0273C67.2146 10.7693 65.5083 10.0625 63.7292 10.0625H16.7708ZM56.8531 32.8574C57.4825 32.2285 57.8363 31.3753 57.8366 30.4855C57.8369 29.5958 57.4837 28.7423 56.8548 28.1129C56.2259 27.4836 55.3727 27.1298 54.4829 27.1295C53.5932 27.1292 52.7397 27.4823 52.1103 28.1113L35.5072 44.7144L28.393 37.6002C28.0816 37.2886 27.7119 37.0413 27.3049 36.8726C26.8979 36.7038 26.4617 36.6169 26.0211 36.6168C25.1314 36.6164 24.2779 36.9696 23.6486 37.5985C23.0192 38.2275 22.6654 39.0807 22.6651 39.9704C22.6648 40.8602 23.0179 41.7136 23.6469 42.343L32.8977 51.5938C33.2403 51.9366 33.6471 52.2085 34.0949 52.394C34.5426 52.5796 35.0225 52.6751 35.5072 52.6751C35.9919 52.6751 36.4718 52.5796 36.9196 52.394C37.3673 52.2085 37.7741 51.9366 38.1168 51.5938L56.8531 32.8574Z" fill="#545454"/>
</g>
</svg>
