<svg width="25" height="24" viewBox="0 0 25 24" fill="none" xmlns="http://www.w3.org/2000/svg">
<g clip-path="url(#clip0_305_664)">
<path d="M10.329 4.35532C10.9993 4.19842 11.6856 4.11999 12.374 4.12161C19.1907 4.12161 23.0859 11.9121 23.0859 11.9121C22.4948 13.0179 21.7898 14.0591 20.9825 15.0185M14.4385 13.9765C14.171 14.2636 13.8485 14.4938 13.4901 14.6535C13.1318 14.8131 12.7449 14.899 12.3527 14.9059C11.9604 14.9128 11.5708 14.8407 11.207 14.6937C10.8432 14.5468 10.5128 14.3281 10.2354 14.0507C9.95795 13.7733 9.73926 13.4428 9.59233 13.0791C9.44539 12.7153 9.37324 12.3257 9.38016 11.9334C9.38708 11.5411 9.47294 11.1543 9.63261 10.7959C9.79228 10.4376 10.0225 10.1151 10.3095 9.8476M18.1584 17.6965C16.4938 18.9654 14.4668 19.6683 12.374 19.7025C5.55734 19.7025 1.66211 11.9121 1.66211 11.9121C2.87342 9.65468 4.55348 7.68244 6.58958 6.12765L18.1584 17.6965Z" stroke="black" stroke-width="1.75286" stroke-linecap="round" stroke-linejoin="round"/>
<path d="M1.66211 1.2002L23.0859 22.624" stroke="black" stroke-width="1.75286" stroke-linecap="round" stroke-linejoin="round"/>
</g>
<defs>
<clipPath id="clip0_305_664">
<rect width="23.3714" height="23.3714" fill="white" transform="translate(0.688477 0.226074)"/>
</clipPath>
</defs>
</svg>
