<svg width="81" height="81" viewBox="0 0 81 81" fill="none" xmlns="http://www.w3.org/2000/svg">
<g id="Group">
<path id="Vector" fill-rule="evenodd" clip-rule="evenodd" d="M16.7708 10.0625C14.9917 10.0625 13.2854 10.7693 12.0273 12.0273C10.7693 13.2854 10.0625 14.9917 10.0625 16.7708V63.7292C10.0625 65.5083 10.7693 67.2146 12.0273 68.4727C13.2854 69.7307 14.9917 70.4375 16.7708 70.4375H63.7292C65.5083 70.4375 67.2146 69.7307 68.4727 68.4727C69.7307 67.2146 70.4375 65.5083 70.4375 63.7292V16.7708C70.4375 14.9917 69.7307 13.2854 68.4727 12.0273C67.2146 10.7693 65.5083 10.0625 63.7292 10.0625H16.7708ZM16.7708 16.7708H63.7292V63.7292H16.7708V16.7708ZM56.8531 32.8541C57.1735 32.5447 57.429 32.1745 57.6048 31.7653C57.7806 31.3561 57.8731 30.916 57.877 30.4706C57.8809 30.0252 57.796 29.5836 57.6273 29.1713C57.4587 28.7591 57.2096 28.3846 56.8947 28.0697C56.5798 27.7548 56.2053 27.5057 55.7931 27.3371C55.3808 27.1684 54.9392 27.0835 54.4938 27.0874C54.0484 27.0913 53.6083 27.1838 53.1991 27.3596C52.7899 27.5354 52.4197 27.7909 52.1103 28.1113L35.5072 44.7144L28.393 37.6002C28.0816 37.2886 27.7119 37.0413 27.3049 36.8726C26.8979 36.7038 26.4617 36.6169 26.0211 36.6168C25.1314 36.6164 24.2779 36.9696 23.6486 37.5985C23.0192 38.2275 22.6654 39.0807 22.6651 39.9704C22.6648 40.8602 23.0179 41.7136 23.6469 42.343L32.8977 51.5938C33.2403 51.9366 33.6471 52.2085 34.0949 52.394C34.5426 52.5796 35.0225 52.6751 35.5072 52.6751C35.9919 52.6751 36.4718 52.5796 36.9196 52.394C37.3673 52.2085 37.7741 51.9366 38.1168 51.5938L56.8531 32.8541Z" fill="#545454"/>
</g>
</svg>
