<svg width="33" height="33" viewBox="0 0 33 33" fill="none" xmlns="http://www.w3.org/2000/svg">
<g clip-path="url(#clip0_82_5867)">
<path d="M28.6353 21.8151C28.3067 21.2754 27.8961 20.9292 27.4033 20.7767C26.3812 20.4496 25.2404 20.4718 24.5521 21.2167C23.7827 22.2359 23.7634 23.7633 24.5521 24.6487C25.755 25.7842 27.8798 25.223 28.6353 24.103V21.8151ZM31.3456 12.6984C32.4485 13.7075 33 15.1389 33 16.9928V27.6934C32.982 27.9891 32.7394 28.2176 32.472 28.2214H29.1633C28.8676 28.2035 28.6391 27.9607 28.6353 27.6934V27.3766C27.5308 28.2148 26.2526 28.601 24.9746 28.6086C23.5242 28.5662 22.2634 28.053 21.2787 27.1479C20.0659 25.9343 19.5987 24.4421 19.5891 22.9063C19.6368 21.226 20.1222 19.7137 21.2963 18.6296C22.3794 17.7134 23.6604 17.2829 24.9746 17.2744C26.4295 17.2744 27.6498 17.6616 28.6353 18.436V17.4152C28.6353 15.796 27.7906 14.9864 26.101 14.9864C24.7869 14.9864 23.5901 15.5379 22.5107 16.6408C22.224 16.8945 21.82 16.795 21.6659 16.5L20.3635 14.2472C20.2461 14.0126 20.2813 13.8014 20.4691 13.6137C21.2669 12.8158 22.1939 12.2116 23.2498 11.8009C25.8667 10.893 29.3594 10.943 31.3456 12.6984ZM9.69797 10.9385L7.37479 19.2455H12.0563L9.69797 10.9385ZM19.3778 27.3062C19.4247 27.447 19.4482 27.5409 19.4482 27.5878C19.4384 27.9009 19.1981 28.1122 18.9202 28.1157H14.7667C14.5086 28.1158 14.3443 27.9867 14.2739 27.7286L13.1124 23.6454H6.31882L5.15725 27.7286C5.08685 27.9867 4.91085 28.1158 4.62925 28.1157H0.546102C0.10723 28.0793 -0.0587328 27.8098 0.0181297 27.447L6.91722 4.77856C7.01109 4.52042 7.18709 4.39136 7.44522 4.39136H11.986C12.2441 4.39136 12.4201 4.52042 12.5139 4.77856L19.3778 27.3062Z" fill="#545454"/>
</g>
<defs>
<clipPath id="clip0_82_5867">
<rect width="33" height="33" fill="white"/>
</clipPath>
</defs>
</svg>
