<svg width="33" height="33" viewBox="0 0 33 33" fill="none" xmlns="http://www.w3.org/2000/svg">
<path d="M28.6353 23.7427C28.3067 23.0073 27.8961 22.5356 27.4033 22.3277C26.3812 21.8819 25.2404 21.9122 24.5521 22.9272C23.7827 24.3161 23.7634 26.3974 24.5521 27.6039C25.755 29.1513 27.8798 28.3866 28.6353 26.8604V23.7427ZM31.3456 11.3198C32.4485 12.6948 33 14.6453 33 17.1715V31.7529C32.982 32.1558 32.7394 32.4671 32.472 32.4723H29.1633C28.8676 32.448 28.6391 32.1171 28.6353 31.7529V31.3212C27.5307 32.4633 26.2526 32.9896 24.9746 33C23.5242 32.9421 22.2634 32.2429 21.2786 31.0095C20.0659 29.3557 19.5986 27.3225 19.5891 25.2297C19.6368 22.9399 20.1222 20.8792 21.2962 19.4019C22.3794 18.1534 23.6604 17.5668 24.9746 17.5553C26.4295 17.5553 27.6498 18.0829 28.6353 19.1381V17.7471C28.6353 15.5407 27.7906 14.4375 26.101 14.4375C24.7869 14.4375 23.5901 15.189 22.5106 16.6919C22.224 17.0375 21.82 16.902 21.6658 16.5L20.3635 13.4303C20.2461 13.1105 20.2813 12.8227 20.4691 12.5669C21.2669 11.4797 22.1939 10.6563 23.2498 10.0967C25.8667 8.8595 29.3594 8.9277 31.3456 11.3198ZM9.69796 8.92152L7.37479 20.2413H12.0563L9.69796 8.92152ZM19.3778 31.2253C19.4247 31.4171 19.4482 31.545 19.4482 31.609C19.4384 32.0355 19.1981 32.3235 18.9202 32.3284H14.7667C14.5086 32.3284 14.3443 32.1526 14.2739 31.8008L13.1124 26.2368H6.31882L5.15725 31.8008C5.08685 32.1525 4.91085 32.3284 4.62925 32.3284H0.546102C0.10723 32.2786 -0.0587328 31.9115 0.0181297 31.4171L6.91722 0.527624C7.01108 0.175875 7.18708 0 7.44522 0H11.986C12.2441 0 12.4201 0.175875 12.5139 0.527624L19.3778 31.2253Z" fill="#545454"/>
</svg>
