<svg width="95" height="96" viewBox="0 0 95 96" fill="none" xmlns="http://www.w3.org/2000/svg">
<path id="Vector" d="M47.548 91.9123V56.5181C47.548 54.2831 48.4359 52.1396 50.0163 50.5592C51.5967 48.9788 53.7402 48.0909 55.9752 48.0909C58.2102 48.0909 60.3537 48.9788 61.9341 50.5592C63.5145 52.1396 64.4024 54.2831 64.4024 56.5181V75.0579H77.8858C81.4619 75.0579 84.8915 76.4785 87.4201 79.0071C89.9487 81.5358 91.3693 84.9653 91.3693 88.5414V91.9123M42.5389 21.7644C34.1342 12.5222 22.8596 6.38253 10.5358 4.33702C9.68936 4.21737 8.82707 4.28082 8.00723 4.52307C7.18738 4.76532 6.42909 5.18073 5.78359 5.74123C5.13809 6.30173 4.62042 6.99425 4.26557 7.77201C3.91072 8.54977 3.72695 9.39464 3.72667 10.2495V58.3182C3.71762 59.7943 4.25545 61.2214 5.23644 62.3244C6.21744 63.4274 7.5721 64.1281 9.03917 64.2913C18.6112 65.5878 27.6765 69.3696 35.332 75.2602M42.5389 21.7644L42.5456 40.3919M42.5389 21.7644C50.9444 12.5183 62.2216 6.37617 74.5487 4.33027C75.3951 4.21063 76.2574 4.27407 77.0773 4.51632C77.8971 4.75858 78.6554 5.17399 79.3009 5.73448C79.9464 6.29498 80.4641 6.98751 80.8189 7.76527C81.1738 8.54303 81.3576 9.3879 81.3578 10.2428V58.3114C81.3667 59.7886 80.8279 61.2166 79.8456 62.3197C78.8632 63.4229 77.5069 64.1229 76.0386 64.2846" stroke="#A63E71" stroke-width="6.74174" stroke-linecap="round" stroke-linejoin="round"/>
</svg>
